<svg width="800" height="800" viewBox="0 0 59.998 59.998" xmlns="http://www.w3.org/2000/svg"><path d="M16.586 10.028a2.903 2.903 0 002.73 1.97h7.431a2.903 2.903 0 002.73-1.97c.388-1.126 1.607-3.645 2.553-4.445a2.99 2.99 0 001.014-2.842A2.846 2.846 0 0031.116.559c-3.001-.995-5.663-.66-7.698.967a.959.959 0 01-1.22 0C20.163-.1 17.503-.435 14.5.56a2.846 2.846 0 00-1.929 2.182 2.99 2.99 0 001.014 2.842c1.071.906 2.711 3.604 3.001 4.444zm-2.051-6.905a.85.85 0 01.594-.664c.93-.308 1.797-.461 2.599-.461 1.234 0 2.312.364 3.221 1.091a2.959 2.959 0 003.718 0c1.501-1.2 3.458-1.412 5.82-.63a.85.85 0 01.593.664.974.974 0 01-.343.935c-1.528 1.294-2.894 4.576-3.15 5.319a.9.9 0 01-.839.622h-7.431a.9.9 0 01-.839-.622c-.417-1.208-2.272-4.194-3.599-5.319a.972.972 0 01-.344-.935zM31.532 13.998a1 1 0 00-1-1 .977.977 0 00-.5.153.968.968 0 00-.5-.153h-12a1 1 0 000 2h12v1h-11a1 1 0 000 2h11.925c.896.746 2 1.173 3.179 1.173a4.97 4.97 0 003.536-1.466.999.999 0 10-1.414-1.414c-1.13 1.13-3.088 1.133-4.226.014v-2.307zM21.532 25.998c-6.411 0-14 8.131-14 15a1 1 0 002 0c0-5.71 6.729-13 12-13a1 1 0 000-2z"/><path d="M49.532 31.998c-1.031 0-2.259.06-3.497.201-1.347-2.466-3.123-4.587-5.365-6.304L33.468 21c-1.191-.914-3.068-2.002-5.246-2.002h-7.777a8.632 8.632 0 00-5.3 1.822l-7.078 5.157c-7.377 5.8-9.712 15.964-5.551 24.168 1.514 2.985 4.043 6.592 7.501 6.826.271.018.545.028.821.028h19.459a7.986 7.986 0 006.235 3c2.898 0 5.434-1.555 6.838-3.869 1.787.555 3.978.869 6.162.869 4.809 0 10-1.529 10-4v-5.5h-.079c.048-.162.079-.328.079-.5v-11.5c0-2.764-6.286-3.501-10-3.501zm7.924 3.491c-.021.021-.038.042-.067.065a1.712 1.712 0 01-.139.098 4.211 4.211 0 01-.463.24 10.244 10.244 0 01-.677.257c-.146.048-.314.096-.483.143-.132.037-.262.075-.408.111-.19.047-.404.09-.617.133-.161.033-.314.067-.488.098-.24.042-.508.078-.773.114-.181.025-.35.053-.543.075-.315.036-.662.061-1.008.086-.176.013-.336.031-.52.042a31.629 31.629 0 01-3.482 0c-.184-.01-.344-.028-.52-.042-.346-.026-.693-.051-1.008-.086-.193-.022-.362-.05-.543-.075-.265-.036-.533-.072-.773-.114-.174-.031-.327-.065-.488-.098-.213-.044-.427-.087-.617-.133-.146-.036-.275-.073-.408-.111a11.73 11.73 0 01-.483-.143c-.116-.038-.219-.077-.321-.115a6.77 6.77 0 01-.356-.142 4.211 4.211 0 01-.463-.24 1.495 1.495 0 01-.139-.098c-.027-.021-.042-.04-.062-.06.012-.01.02-.02.034-.031.037-.031.09-.066.142-.1a3.16 3.16 0 01.301-.169c.065-.033.129-.065.205-.098.079-.035.17-.07.261-.106.108-.042.226-.084.351-.126.09-.03.177-.061.277-.091.224-.068.469-.135.738-.2.124-.03.268-.057.403-.085a15.686 15.686 0 011.123-.201 27.309 27.309 0 014.085-.288c4.726-.001 7.369.974 7.929 1.49zm-15.249 8.227c.09.038.183.074.277.111a13.359 13.359 0 001.477.477c.078.021.153.044.232.063.303.076.613.146.931.208.066.013.135.023.202.036.255.048.513.092.775.131.112.017.225.031.338.046a24.308 24.308 0 001.751.167c.106.006.212.014.318.019.342.015.683.025 1.023.025.34 0 .681-.01 1.023-.025.108-.005.216-.013.324-.019a21.828 21.828 0 001.742-.166c.116-.015.232-.03.347-.047.258-.038.512-.082.763-.129.071-.013.143-.024.214-.038.316-.063.625-.132.926-.207.084-.021.164-.045.247-.067.217-.058.43-.118.636-.183.101-.032.198-.065.296-.098a13.26 13.26 0 00.81-.305c.18-.076.351-.156.516-.238.052-.026.111-.048.161-.074l.006 3.524c-.235.569-2.819 1.837-6.896 2.04-.366.013-.72.031-1.115.031-2.203 0-4.379-.338-6.041-.932l-.019-.03a8.09 8.09 0 00-.378-.601c-.02-.029-.043-.056-.064-.085a7.765 7.765 0 00-.393-.51c-.042-.049-.087-.094-.13-.143a8.086 8.086 0 00-.379-.406c-.068-.067-.141-.127-.211-.192-.116-.106-.23-.212-.351-.311-.012-.01-.022-.021-.034-.03l.002-2.353c.051.027.112.05.164.076.165.081.333.16.51.235zM28.996 54.998H10.838c-.231 0-.461-.008-.688-.023-1.965-.133-4.043-2.17-5.851-5.735-3.731-7.356-1.626-16.479 4.974-21.669l7.078-5.157a6.655 6.655 0 014.093-1.416h7.777c1.617 0 3.083.864 4.076 1.623l7.202 4.894a17.694 17.694 0 014.445 5.001c-1.266.261-2.49.659-3.331 1.243l-.069.048a3.26 3.26 0 00-.349.291c-.045.043-.085.087-.126.132a2.262 2.262 0 00-.217.269c-.052.077-.09.16-.13.242-.035.074-.077.145-.102.223a1.713 1.713 0 00-.089.534v9.089a7.848 7.848 0 00-1.044-.337l-.141-.036a7.912 7.912 0 00-1.072-.178c-.041-.004-.082-.003-.123-.006a7.942 7.942 0 00-.62-.031c-.11 0-.216.012-.325.016a8.058 8.058 0 00-1.305.151l-.02.003c-.027.006-.052.017-.079.023-.313.069-.618.16-.916.266-.108.038-.216.076-.322.118a7.93 7.93 0 00-.866.404c-.105.057-.203.123-.305.185a7.787 7.787 0 00-.568.379c-.108.079-.217.156-.321.24-.235.19-.459.393-.671.609-.093.094-.178.194-.266.293a7.93 7.93 0 00-.428.523c-.073.098-.15.191-.219.292a7.917 7.917 0 00-.478.804c-.056.108-.107.218-.159.329a7.848 7.848 0 00-.305.753c-.026.075-.058.146-.081.222a7.923 7.923 0 00-.238 1.012c-.008.044-.024.086-.031.13-.008.054-.008.112-.015.166a7.99 7.99 0 00-.063.714c-.004.086-.012.171-.013.258 0 .037-.006.073-.006.11 0 .159.015.314.024.47.039.864.18 1.732.441 2.529zm7.536 3a6.004 6.004 0 01-5.996-5.929c0-.078.002-.155.005-.233a5.95 5.95 0 01.017-.328c.007-.092.018-.183.029-.274.012-.093.026-.185.042-.276.045-.26.103-.517.182-.766.008-.027.02-.052.029-.078.084-.251.185-.496.302-.733l.033-.068a6.168 6.168 0 012.421-2.541l.011-.007c.234-.133.48-.245.73-.345.065-.026.131-.049.196-.072.222-.079.448-.148.681-.199.032-.007.062-.018.094-.024.289-.059.579-.091.868-.108.055-.003.11-.007.166-.008.295-.009.589-.001.879.033l.049.008c.306.038.609.099.907.185l.013.003c.307.089.608.204.902.343.27.128.533.271.779.436l.04.028c.035.024.067.051.101.075.166.119.325.245.478.38.037.032.073.066.109.099.153.142.299.29.436.446l.042.046c.318.37.592.779.812 1.218.051.1.102.201.147.304.076.175.142.352.201.531l.014.039c.058.181.105.365.145.55l.011.043c.038.184.066.37.087.557l.008.049a6.007 6.007 0 01-.002 1.249c-.003.031-.01.06-.014.091a5.69 5.69 0 01-.088.538c-.004.02-.011.039-.015.059-.043.19-.094.378-.156.564l-.009.024a6.227 6.227 0 01-.228.574c-.949 2.071-3.036 3.517-5.458 3.517zm13-3c-1.898 0-3.787-.253-5.339-.706l.001-.006c.097-.324.168-.658.224-.998.013-.081.026-.161.037-.243.045-.344.077-.691.077-1.047 0-.259-.014-.516-.039-.771-.009-.092-.025-.181-.037-.272-.017-.129-.029-.259-.052-.386 1.517.28 3.279.429 5.128.429 2.39 0 5.845-.305 8.004-1.259l.006 3.188c-.256.619-3.291 2.071-8.01 2.071zm0-12c-4.703 0-7.731-1.441-7.995-1.994l.002-3.261c.025.011.055.02.081.031a9.59 9.59 0 00.798.3c.272.088.559.167.852.24.096.024.195.046.293.068a17.787 17.787 0 00.972.198c.243.043.487.081.734.117l.233.035c.323.043.646.081.967.112l.241.021a32.257 32.257 0 001.701.108l.271.01c.293.008.579.013.849.013.269 0 .555-.005.848-.013l.275-.01a31.277 31.277 0 001.702-.109l.238-.021c.322-.032.645-.069.968-.113l.236-.035c.246-.035.49-.074.732-.117.109-.019.215-.04.322-.06.221-.043.438-.089.653-.139.098-.023.196-.044.292-.068.299-.075.591-.155.868-.245l.04-.014c.261-.086.508-.181.743-.281.028-.012.061-.022.089-.034l.006 3.188c-.257.621-3.292 2.073-8.011 2.073z"/></svg>